<?xml version="1.0" encoding="UTF-8"?>
<svg id="_レイヤー_1" xmlns="http://www.w3.org/2000/svg" version="1.1" viewBox="0 0 245.8 245.8">
  <!-- Generator: Adobe Illustrator 29.7.1, SVG Export Plug-In . SVG Version: 2.1.1 Build 8)  -->
  <defs>
    <style>
      .st0 {
        fill: #fff;
      }
    </style>
  </defs>
  <g>
    <path d="M184.5,12c25.4-8.1,61.2,28.3,51.3,53.1-1.8,4.8-4.8,6.4-8.1,9.9v.4c-41.9,43.9-86.4,85.7-128.9,129.2-26.5,10.5-53.3,19.9-80,30-3.5,1.3-6.3-1.5-5-5l30-80c33.8-33.5,67.5-67.3,101.3-100.9,33.8-33.6,19.1-20,29.2-29.6,10.1-9.6,5.9-5.7,10.1-7.2h0ZM227.7,64.6c10.3-17.6-23.9-52.4-42.5-44.3s-11.8,10.3-13.4,12.5-1.1,1.3,0,2.2c7.9,7.9,16,15.6,23.9,23.5h0c6.4,6.4,12.5,13.1,18.9,19.5,3.1-4.2,10.5-9,13.1-13.4ZM99.2,193.6l109.2-109.2-43.8-43.8h-.2c0-.2-109.2,109-109.2,109l43.9,43.9h0ZM49.5,214.8l43-15.4c-1.8-1.8-3.7-4-5.5-6.1-11-11.4-23.3-24.3-34.9-34.9h0c-.4-.4-2.6-2.2-2.9-1.8l-15.3,43.2,15.4,15.1h.2ZM24.7,224l16.4-5.7-10.7-10.7-5.7,16.4h0Z"/>
    <path class="st0" d="M185.2,20.3c18.6-8.1,52.8,26.7,42.5,44.3-10.3,17.6-9.9,9.2-13.1,13.4-6.4-6.4-12.5-13.1-18.9-19.3h0c-7.9-8.1-16-15.8-23.9-23.7-1.1-.9-1.7,0,0-2.2s-5.1-4.4,13.4-12.5Z"/>
    <polygon class="st0" points="208.4 84.4 99.2 193.6 55.2 149.7 164.4 40.5 164.6 40.7 208.4 84.4"/>
    <path class="st0" d="M92.6,199.3l-43,15.4-15.4-15.1,15.3-43.2c.4-.4,2.6,1.5,2.9,1.8h0c11.6,10.7,23.9,23.5,34.9,34.9,1.8,2,3.7,4.2,5.5,6.1h-.2Z"/>
    <polygon class="st0" points="41.1 218.3 24.7 224 30.4 207.6 41.1 218.3"/>
  </g>
  <path d="M160,74.3c-24.3,22.8-46.7,47.4-70.6,70.6-23.9,23.2-5.5,5.3-6.1,5.5-3.9,1.7-6.1-1.3-5-5,26.1-27,53.1-53.3,79.6-80.2,3.9-2.8,7.7,0,5.9,4.6s-3.1,2.8-3.9,4.4h0Z"/>
</svg>