<?xml version="1.0" encoding="UTF-8"?>
<svg id="_レイヤー_1" xmlns="http://www.w3.org/2000/svg" version="1.1" viewBox="0 0 146.9 110.2">
  <!-- Generator: Adobe Illustrator 29.7.1, SVG Export Plug-In . SVG Version: 2.1.1 Build 8)  -->
  <defs>
    <style>
      .st0 {
        fill: #fff;
      }
    </style>
  </defs>
  <path d="M51.6,50.7c8.8,2.9,3.1,1.3,3.8-.9,1.6-5-3-14.4-8.4-15.1-4-.5-13.2,4.1-19.9,2.8-2.4-.4-4.4-1.7-5.7-4.2-5-9.6,3.2-10.8,8.3-13,7.4-3.1,15.7-5.2,23.4-7.2.6-.3.6-1.5.9-2.2,1.6-3.7,4.9-5,8.8-5.2,3.9-.2,5.1.6,7.2.2s1.9-1.1,2.7-1.4c5.8-2.2,8.9-.9,13.4,2.7s.5,0,.5,0h.3c5.4,4.5,12.1,15,14.4,21.7s.5,16.9,1.8,25.2c1.7,11.6,5.6,14,14.6,19.9s5.6,2.4,4.3,5.6-2.4,3.1-3,4c-5.5,6.8-19.8,22.9-28.9,23.1-.4,0-1.6-.2-1.9-.3-1.2-.4-3.8-5.3-4.8-6.7s-2.4-3-3.1-3.6c-1.9-1.3-6.4-2.3-8.8-3.2-7-2.8-13.7-6.4-19-11.9s-3.6-4.7-5.4-6.7c-5.5-6.3-12.7-10.7-19.4-15.7-2.7-1.9-9.3-6.5-10.2-9.5s1-8.5,5.2-9.2c1.3-.2,2.7-.2,4.1,0,8.4,1,17.3,8.3,24.8,10.8h0ZM74,8.9s.2,0,.4-.1h.4c2.1.6,7.7,2.9,7.7,5.4s-1,2.3-2.2,2.4-2.6-1.3-3.7-1.8c-4-2.1-13-6.3-17.1-3.7-4.1,2.6-1.7,1.4-.9,1.8s3.6.9,4.8,1.2c2.8.9,11.6,3.5,13.4,5.4s.8,3.6-1,3.9-2.2-.5-3.6-1.2c-3.5-1.6-7.2-2.8-10.9-3.9s-4.7-1.4-5.8-1.4c-1.7,0-6.1,1.4-7.9,1.9-5.4,1.5-15,4.3-19.7,7.1s-3,6.9,2.1,6.8,10.7-3.7,17.2-3.1,15.7,14.2,12.2,22.2c-3.5,8-8,3.7-12.4,1.7s-14.9-8.9-21.1-9.3-5.2.3-3.9,3.4,5.1,4.5,6.2,5.3c7.5,5.6,15.6,10.5,22,17.5,6.4,7,4.8,6.4,7.9,9.2,4.7,4.1,10.1,6.7,15.7,9s8.3,1.7,12.8,7.5c.6.9,3.4,5.3,3.7,5.5s.9,0,1.3,0c6.7-1.7,18.3-14.4,22.8-20s2.3-2.7,2.1-3c-.4,0-1-.3-1.4-.5-10.3-6.9-14.8-10.4-16.8-23.5-1.9-13.1,0-13.2-.5-19.7-.5-6.5-9.4-20.9-15.6-25.2-6.2-4.3-3.8-2.4-6.7-1.3-.4.2-.8.2-1,.3-.2,0-.4,0-.4.1h0Z"/>
  <path class="st0" d="M82.6,14.3c0-2.5-5.6-4.8-7.7-5.4,0-.1-.2-.1-.4,0,.2,0,.5-.2,1-.3,2.9-1.1.5-3,6.7,1.3,6.2,4.3,15,18.7,15.6,25.2.5,6.5-1.4,6.6.5,19.7,1.9,13.1,6.5,16.5,16.8,23.5.4.2,1,.5,1.4.5.2.3,2.5-2.6-2.1,3-4.5,5.6-16.1,18.3-22.8,20-.4,0-1,.2-1.3,0s-3-4.7-3.7-5.5c-4.4-5.7-7.1-5.2-12.8-7.5s-11-4.9-15.7-9c-3.1-2.8-1.5-2.2-7.9-9.2s-14.5-11.9-22-17.5c-1.1-.8-4.9-2.3-6.2-5.3s-2.3-3.8,3.9-3.4c6.2.4,16.7,7.4,21.1,9.3s9,6.3,12.4-1.7-5.7-21.6-12.2-22.2-12.1,3-17.2,3.1-6.7-4-2.1-6.8,14.3-5.6,19.7-7.1c1.8-.5,6.2-1.9,7.9-1.9s2.2.3,5.8,1.4,7.5,2.3,10.9,3.9c1.4.6,1.8,1.5,3.6,1.2s2.8-1.9,1-3.9-10.6-4.5-13.4-5.4c-1.2-.3-3.9-.8-4.8-1.2s-3.2.8.9-1.8,13.1,1.6,17.1,3.7c1.1.5,2.5,1.9,3.7,1.8s2.2,0,2.2-2.4h0Z"/>
  <path d="M74.5,8.8c-.2,0-.4.1-.4.1,0,0,.3-.1.4-.1Z"/>
</svg>