<?xml version="1.0" encoding="UTF-8"?>
<svg id="_レイヤー_1" xmlns="http://www.w3.org/2000/svg" version="1.1" viewBox="0 0 146.9 110.2">
  <!-- Generator: Adobe Illustrator 29.7.1, SVG Export Plug-In . SVG Version: 2.1.1 Build 8)  -->
  <defs>
    <style>
      .st0 {
        fill: #fff;
      }
    </style>
  </defs>
  <path class="st0" d="M97.5,47.5c.8,2.2.3,5.4.4,7.8.3,5.2,2.2,13.1,4.9,17.5,1.9,3,5.1,5.5,7.9,7.7,0,.3.5-.4-.2.7s1-.9-3.7,4.2-10.1,10.4-16.1,13.9l-4.7-8.7c-1.1-1.4-1.7-.3-5.7.3s-3.2,1.9-12-1.2c-8.8-3.1-15.7-12-25-13-3.7-.4-6.4,1-10.1-1.9s-6.9-7.9,1.9-8.2c8.8-.3,14.5,7.8,23.6,2.3,16.6-10,5.1-39.6-.6-53.3-1.1-5.1,5.8-6.7,8.1-3.7s5.2,12.8,6.2,15.9,1.8,6.4,2.6,9.6,1.1,6.3,1.7,6.8h-.2c.3.3-2.5.1,1,.3s2.4-2.4,1.9-5.3-1.4-5.7-2-8.6c1.4-.3,4,1,4.7,2.2.5.8.6,1.6,1,3.6s.1,5.5,3.3,4.5c2.1-.6.8-4.9.4-6.4,2.2.4,3.9,2.1,4.5,4.3s-.6,6.6.6,8.1c.8,1.1,2.9.9,3.4-.3.2-.5,0-1.9.5-1.7.4.1.9.4,1.7,2.6Z"/>
  <path d="M33.1,79.5c-9.6-4.4-8.8-18,4.2-16.9s14.7,8,21.6.9c8.8-8.9,2.1-28.8-1.6-38.9-1.4-3.9-3.8-7.3-3.3-11.6s2.9-6.3,6.2-7c11.4-2.7,12.9,13.1,16,20.3,1.3.5,2.6,0,4.1.5,2.5.6,3.6,2.7,4.9,3.2s2.5.3,3.5.6c3,.9,5.2,3,6.3,5.9,1.1,2.9.4,2.4.8,2.8s1,.6,1.5.9c6.5,5.7,4.1,9.5,5.1,17s3.2,13.6,10.4,19.6,4.5,2,2.5,4.9-6,6.8-8.5,9.4v.2c-3.5,3.5-11.2,11.1-15.9,12.3s-2.3.5-3.2-.9-3.8-8-4.5-8.2c-6.6,1.4-13.3.6-19.4-2.2-6.1-2.8-11-8.1-17-10.4-6-2.3-9.1-.2-13.7-2.4ZM35.1,66.6c-8.8.3-5.6,5.3-1.9,8.2s6.4,1.5,10.1,1.9c9.3,1,16.2,9.9,25,13,8.8,3.1,8,1.8,12,1.2s4.6-1.7,5.7-.3l4.7,8.7c6-3.5,11.4-8.8,16.1-13.9s3-3.1,3.7-4.2.3-.4.2-.7c-2.8-2.2-6-4.7-7.9-7.7-2.7-4.4-4.6-12.3-4.9-17.5,0-2.4.4-5.6-.4-7.8s-1.3-2.5-1.7-2.6c-.6-.2-.3,1.2-.5,1.7-.5,1.2-2.6,1.4-3.4.3-1.2-1.5,0-5.9-.6-8.1s-2.3-3.9-4.5-4.3c.4,1.5,1.7,5.8-.4,6.4-3.2,1-2.9-2.5-3.3-4.5s-.5-2.8-1-3.6c-.7-1.2-3.3-2.5-4.7-2.2.6,2.9,1.5,5.7,2,8.6s1.6,5.5-1.9,5.3-.7,0-1-.3h.2c-.6-.5-1.4-5.6-1.7-6.8-.8-3.2-1.6-6.5-2.6-9.6s-3.9-12.9-6.2-15.9-9.2-1.4-8.1,3.7c5.7,13.7,17.2,43.3.6,53.3-9.1,5.5-14.8-2.6-23.6-2.3Z"/>
</svg>